<?xml version="1.0" encoding="utf-8"?>
<!-- Generator: Adobe Illustrator 27.8.1, SVG Export Plug-In . SVG Version: 6.00 Build 0)  -->
<svg version="1.1" id="Layer_1" xmlns="http://www.w3.org/2000/svg" xmlns:xlink="http://www.w3.org/1999/xlink" x="0px" y="0px"
	 viewBox="0 0 500 500" style="enable-background:new 0 0 500 500;" xml:space="preserve">
<style type="text/css">
	.st0{display:none;}
	.st1{display:inline;fill:#B04304;}
	.st2{display:inline;fill:#FF5D01;}
	.st3{display:inline;fill:#53C68C;}
	.st4{fill:#B04304;}
	.st5{fill:#FF5D01;}
	.st6{fill:#53C68C;}
</style>
<g class="st0">
	<path class="st1" d="M295.3,103.3v-40L340.7,90v40L295.3,103.3L295.3,103.3z M250,63.3l-45.3-26.7v426.7L250,490V63.3z"/>
	<path class="st2" d="M250,129.9l45.3-26.7l45.3,26.7l-45.3,26.7L250,129.9z M204.7,36.7L250,10l45.3,26.7L250,63.3L204.7,36.7z
		 M295.3,63.3l45.3-26.7L386,63.3l-45.3,26.7L295.3,63.3L295.3,63.3z M114,223.3l45.3-26.7l45.3,26.7l-45.3,26.7L114,223.3z
		 M250,249.9l-45.3-26.7v53.3L250,249.9z"/>
	<path class="st3" d="M250,63.3l45.3-26.7v120l45.3-26.7V90L386,63.3V170l-90.7,53.3v240L250,490V316.7L159.3,370V250l45.3-26.7
		v53.3L250,250V63.3z"/>
	<path class="st1" d="M159.3,250L114,223.3v120l45.3,26.7V250z"/>
</g>
<g>
	<path class="st4" d="M250,90v60l67.9,40l0.1,0v-60L250,90z"/>
	<polygon class="st4" points="182,90 182,490 114,450 114,50 	"/>
	<path class="st5" d="M318,49.9l-68,40l68,40l68-40L318,49.9z M182,10l-68,40l68,40l68-40L182,10z M250,149.9l-68,40l68,40l67.9-40
		l0.1,0L250,149.9z"/>
	<path class="st6" d="M182,370V90l68-40v180l68-40v-60l68-40v160l-136,80v120l-68,40v-30V370z"/>
</g>
</svg>
